<?xml version="1.0" standalone="no"?>
<!DOCTYPE svg PUBLIC "-//W3C//DTD SVG 20010904//EN"
 "http://www.w3.org/TR/2001/REC-SVG-20010904/DTD/svg10.dtd">
<svg version="1.0" xmlns="http://www.w3.org/2000/svg"
 width="120.000000pt" height="120.000000pt" viewBox="0 0 120.000000 120.000000"
 preserveAspectRatio="xMidYMid meet">
<metadata>
Created by potrace 1.14, written by Peter Selinger 2001-2017
</metadata>
<g transform="translate(0.000000,120.000000) scale(0.100000,-0.100000)"
fill="#000000" stroke="none">
<path d="M139 1049 c-1 -15 -1 -16 13 -69 5 -19 11 -42 13 -50 2 -8 4 -15 5
-15 1 0 3 -7 5 -15 2 -8 11 -41 20 -73 14 -53 14 -61 -1 -105 -22 -62 -26
-166 -10 -236 12 -52 12 -58 -4 -69 -17 -12 -17 -14 1 -36 11 -13 25 -21 34
-18 9 4 23 -6 37 -26 35 -49 59 -73 112 -111 39 -28 46 -37 33 -42 -13 -5 -14
-10 -6 -25 13 -24 30 -24 61 1 14 10 28 16 32 13 17 -17 161 -22 212 -7 23 7
47 8 55 4 24 -14 54 -5 57 16 1 11 19 30 39 44 42 29 82 68 104 100 8 13 27
24 44 25 35 4 76 25 69 36 -2 4 0 10 6 14 26 16 1 105 -29 105 -8 0 -10 19 -8
58 2 31 -3 80 -10 107 -17 65 -16 78 2 71 9 -3 16 1 16 9 4 50 5 50 -31 50
-30 0 -40 7 -69 45 -46 62 -137 126 -206 145 -59 16 -71 18 -130 18 -46 0 -63
5 -73 19 -20 28 -49 22 -61 -12 -16 -47 -31 -48 -136 -16 -5 1 -37 11 -70 21
-33 10 -64 20 -70 21 -5 2 -20 6 -32 10 -16 4 -23 2 -24 -7z m884 -604 c-3 -9
-8 -14 -10 -11 -3 3 -2 9 2 15 9 16 15 13 8 -4z m47 -19 c0 -2 -7 -7 -16 -10
-8 -3 -12 -2 -9 4 6 10 25 14 25 6z"/>
<path d="M912 1005 c-10 -22 -9 -26 17 -39 27 -14 29 -14 40 11 6 14 10 27 9
28 -6 5 -47 25 -51 25 -2 0 -9 -11 -15 -25z"/>
<path d="M960 281 c-9 -3 -15 -12 -14 -18 1 -7 2 -20 3 -28 1 -11 9 -14 27
-11 34 6 37 10 30 34 -8 23 -25 32 -46 23z"/>
<path d="M208 229 c-23 -13 -23 -32 0 -52 18 -17 28 -14 51 16 12 15 12 19 -5
32 -23 17 -24 17 -46 4z"/>
</g>
</svg>
